{
  "accessors": [
    {
      "bufferView": 2,
      "componentType": 5126,
      "count": 3822,
      "max": [
        0.9868689775466919,
        0.44393500685691833,
        1.0
      ],
      "min": [
        -0.9868689775466919,
        -0.44393500685691833,
        -1.0
      ],
      "type": "VEC3"
    },
    {
      "bufferView": 2,
      "byteOffset": 45864,
      "componentType": 5126,
      "count": 3822,
      "max": [
        0.9993487000465393,
        0.9998372197151184,
        0.9998450875282288
      ],
      "min": [
        -0.9998547434806824,
        -0.9997783303260803,
        -0.9999810457229614
      ],
      "type": "VEC3"
    },
    {
      "bufferView": 3,
      "componentType": 5126,
      "count": 3822,
      "max": [
        0.9994900226593018,
        0.9987019896507263,
        0.9992859959602356,
        1.0
      ],
      "min": [
        -0.9998540282249451,
        -0.9962239861488342,
        -0.999705970287323,
        1.0
      ],
      "type": "VEC4"
    },
    {
      "bufferView": 1,
      "componentType": 5126,
      "count": 3822,
      "max": [
        0.9791979789733887,
        0.9997749924659729
      ],
      "min": [
        0.00022499999613501132,
        0.00022499999613501132
      ],
      "type": "VEC2"
    },
    {
      "bufferView": 0,
      "componentType": 5125,
      "count": 21348,
      "type": "SCALAR"
    }
  ],
  "asset": {
    "extras": {
      "author": "d880 (https://sketchfab.com/distance880)",
      "license": "CC-BY-NC-4.0 (http://creativecommons.org/licenses/by-nc/4.0/)",
      "source": "https://sketchfab.com/3d-models/stoney-asteroids-9c03507d9f5b4e509bc90791ffbc5ac7",
      "title": "Stoney Asteroids"
    },
    "generator": "Sketchfab-12.66.0",
    "version": "2.0"
  },
  "bufferViews": [
    {
      "buffer": 0,
      "byteLength": 85392,
      "name": "floatBufferViews",
      "target": 34963
    },
    {
      "buffer": 0,
      "byteLength": 30576,
      "byteOffset": 85392,
      "byteStride": 8,
      "name": "floatBufferViews",
      "target": 34962
    },
    {
      "buffer": 0,
      "byteLength": 91728,
      "byteOffset": 115968,
      "byteStride": 12,
      "name": "floatBufferViews",
      "target": 34962
    },
    {
      "buffer": 0,
      "byteLength": 61152,
      "byteOffset": 207696,
      "byteStride": 16,
      "name": "floatBufferViews",
      "target": 34962
    }
  ],
  "buffers": [
    {
      "byteLength": 268848,
      "uri": "scene.bin"
    }
  ],
  "images": [
    {
      "uri": "textures/Material_001_baseColor.jpeg"
    },
    {
      "uri": "textures/Material_001_metallicRoughness.png"
    },
    {
      "uri": "textures/Material_001_normal.jpeg"
    }
  ],
  "materials": [
    {
      "doubleSided": true,
      "name": "Material_001",
      "normalTexture": {
        "index": 2,
        "scale": 0.34
      },
      "pbrMetallicRoughness": {
        "baseColorTexture": {
          "index": 0
        },
        "metallicRoughnessTexture": {
          "index": 1
        },
        "roughnessFactor": 0.9
      }
    }
  ],
  "meshes": [
    {
      "name": "defaultMaterial",
      "primitives": [
        {
          "attributes": {
            "NORMAL": 1,
            "POSITION": 0,
            "TANGENT": 2,
            "TEXCOORD_0": 3
          },
          "indices": 4,
          "material": 0,
          "mode": 4
        }
      ]
    }
  ],
  "nodes": [
    {
      "children": [
        1
      ],
      "matrix": [
        1.0,
        0.0,
        0.0,
        0.0,
        0.0,
        2.220446049250313e-16,
        -1.0,
        0.0,
        0.0,
        1.0,
        2.220446049250313e-16,
        0.0,
        0.0,
        0.0,
        0.0,
        1.0
      ],
      "name": "Sketchfab_model"
    },
    {
      "children": [
        2
      ],
      "matrix": [
        1.0,
        0.0,
        0.0,
        0.0,
        0.0,
        -4.371139006309477e-08,
        0.999999999999999,
        0.0,
        0.0,
        -0.999999999999999,
        -4.371139006309477e-08,
        0.0,
        0.0,
        0.0,
        0.0,
        1.0
      ],
      "name": "Collada visual scene group"
    },
    {
      "children": [
        3
      ],
      "name": "Mball.000_Mesh.001"
    },
    {
      "mesh": 0,
      "name": "defaultMaterial"
    }
  ],
  "samplers": [
    {
      "magFilter": 9729,
      "minFilter": 9987,
      "wrapS": 10497,
      "wrapT": 10497
    }
  ],
  "scene": 0,
  "scenes": [
    {
      "name": "Sketchfab_Scene",
      "nodes": [
        0
      ]
    }
  ],
  "textures": [
    {
      "sampler": 0,
      "source": 0
    },
    {
      "sampler": 0,
      "source": 1
    },
    {
      "sampler": 0,
      "source": 2
    }
  ]
}
